# xmcd
#
# Track frame offsets: 
#        150
#        19176
#        34106
#        52290
#        74115
#        85570
#        102156
#        121373
#        143968
#        164661
#        173641
#        186015
#
# Disc length: 2938 seconds
#
# Revision: 0
# Processed by: cddbd v1.5.2PL0 Copyright (c) Steve Scherf et al.
# Submitted via: ExactAudioCopy v0.99pb5
#
DISCID=aa0b780c
DTITLE=Heritage Blues Orchestra - And Still I Rise
DYEAR=2012
DGENRE=Blues
TTITLE0=Clarksdale Moan
TTITLE1=C-Line Woman
TTITLE2=Big-Legged Woman
TTITLE3=Catfish Blues
TTITLE4=Go Down Hannah
TTITLE5=Get Right Church
TTITLE6=Don't Ever Let Nobody Drag Your Spirit Down
TTITLE7=Going Uptown
TTITLE8=In The Morning
TTITLE9=Levee Camp Holler
TTITLE10=Chilly Jordan
TTITLE11=Hard Times
EXTD=
EXTT0=
EXTT1=
EXTT2=
EXTT3=
EXTT4=
EXTT5=
EXTT6=
EXTT7=
EXTT8=
EXTT9=
EXTT10=
EXTT11=
PLAYORDER=
